<svg xmlns="http://www.w3.org/2000/svg" xmlns:xlink="http://www.w3.org/1999/xlink" version="1.1" width="61.586204528808594" height="65.5862045288086" style=""><rect id="backgroundrect" width="100%" height="100%" x="0" y="0" fill="none" stroke="none" class="" style=""/><metadata><rdf:RDF xmlns:rdf="http://www.w3.org/1999/02/22-rdf-syntax-ns#" xmlns:rdfs="http://www.w3.org/2000/01/rdf-schema#" xmlns:dc="http://purl.org/dc/elements/1.1/"><rdf:Description about="https://iconscout.com/legal#licenses" dc:title="css" dc:description="css" dc:publisher="Iconscout" dc:date="2017-12-15" dc:format="image/svg+xml" dc:language="en"><dc:creator><rdf:Bag><rdf:li>Icons8</rdf:li></rdf:Bag></dc:creator></rdf:Description></rdf:RDF></metadata><g class="currentLayer" style=""><title>Layer 1</title><g id="surface1" class=""><path d="M34,0 H0 l3,34 l14,4 l14,-4 z" fill="#0277BD" id="svg_1"/><path d="M17,3 v31.898 L28.200000000000003,31.700000000000003 L30.700000000000003,3 z" fill="#039BE5" id="svg_2"/><path d="M26.101999999999997,8 H17 v4 h4.898 l-0.29600000000000004,4 H17 v4 h4.398 l-0.29600000000000004,4.5 L17,25.898 v4.204 l7.898,-2.6020000000000003 l0.7040000000000001,-11.5 z" fill="#FFF" id="svg_3"/><path d="M17,8 v4 h-8.898 l-0.30100000000000005,-4 zm-4.602,8 l0.20400000000000001,4 H17 v-4 zm0.403,6 h-4 l0.30000000000000004,5.5 L17,30.101999999999997 v-4.204 L12.898,24.5 z" fill="#EEE" id="svg_4"/></g><g class="" id="svg_5"><path d="M60.896549701690674,1.6653345369377348e-16 H0 l5.373224973678589,58.06533479690552 l25.075049877166748,6.8312158584594735 l25.075049877166748,-6.8312158584594735 z" fill="#0277BD" id="svg_6"/><path d="M30.448274850845337,5.1234118938446045 v54.475530863285066 L50.50831475257874,54.137385678291324 L54.98600223064423,5.1234118938446045 z" fill="#039BE5" id="svg_7"/><path d="M46.75063942098617,13.662431716918945 H30.448274850845337 v6.8312158584594735 h8.77268530702591 l-0.530158197402954,6.8312158584594735 H30.448274850845337 v6.8312158584594735 h7.8771478114128115 l-0.530158197402954,7.685117840766907 L30.448274850845337,44.22870707559586 v7.179607867240906 l14.145910280704499,-4.443705915927888 l1.2609167938232426,-19.639745593070984 z" fill="#FFF" id="svg_8"/><path d="M30.448274850845337,13.662431716918945 v6.8312158584594735 h-15.936985271930695 l-0.5391135723590855,-6.8312158584594735 zm-8.242527109622955,13.662431716918945 l0.3653792982101443,6.8312158584594735 H30.448274850845337 v-6.8312158584594735 zm0.7218032214641573,10.246823787689209 h-7.164299964904785 l0.5373224973678591,9.392921805381775 L30.448274850845337,51.40831494283675 v-7.179607867240906 L23.10128523683548,41.84119713306427 z" fill="#EEE" id="svg_9"/></g></g></svg>