<svg xmlns="http://www.w3.org/2000/svg" width="82.87804870484433" height="93.73983765051867"><rect id="backgroundrect" width="100%" height="100%" x="0" y="0" fill="none" stroke="none" class="" style=""/><g class="currentLayer" style=""><title>Layer 1</title><path fill="#e6a329" d="M77.74899187040329,4.597825372219063 H-0.8130081295967102 l7.365,79.867 l31.912,9.051 l31.912,-9.051 z" data-name="Path 275" id="svg_1" class=""/><path fill="#f1bf22" d="M38.46400603055952,11.104807794094086 v75.643 l25.856,-7.325 L70.61000603055959,11.104807794094086 z" data-name="Path 276" id="svg_2" class=""/><path fill="#fff" d="M59.03398381376269,20.902842462062836 H19.278983813762693 L16.509983813762688,50.80284246206281 l0.05700000000000011,-0.18600000000000044 h33.774 l-1.1,12.651 l-10.776,3.1 l-10.935,-3.15 l-0.6550000000000034,-7.657 h-9.926 l1.416,15.3 l20.1,5.706 l20.109,-5.706 l2.769,-30.032 H25.498983813762663 l0.46,-10.006 h24.869 l0.3720000000000015,5.7330000000000005 H61.209983813762676 z" data-name="Path 277" id="svg_3" class=""/><path fill="#ebebeb" d="M38.47298381376265,20.902842462062836 H19.278983813762693 L16.509983813762688,50.80284246206281 l0.05700000000000011,-0.18600000000000044 h21.905 v-9.754 H26.896983813762688 l0.46,-10.006 h11.116 zm-11.576,34.663 h-9.949 l1.416,15.292 l20.1,5.7 V66.38184246206288 l-10.935,-3.158 z" data-name="Path 278" id="svg_4" class=""/></g></svg>